<?xml version="1.0" encoding="utf-8"?>
<!-- Generator: Adobe Illustrator 25.0.1, SVG Export Plug-In . SVG Version: 6.00 Build 0)  -->
<svg version="1.1" id="Layer_1" xmlns="http://www.w3.org/2000/svg" xmlns:xlink="http://www.w3.org/1999/xlink" x="0px" y="0px"
	 viewBox="0 0 100 100" style="enable-background:new 0 0 100 100;" xml:space="preserve">
<style type="text/css">
	.st0{fill:var(--bg-color);}
	.st1{fill:#373B40FFF;}
</style>
<path class="st0" d="M0,12C0,5.4,5.4,0,12,0h76c6.6,0,12,5.4,12,12v76c0,6.6-5.4,12-12,12H12c-6.6,0-12-5.4-12-12V12z"/>
<g>
	<polygon class="st1" points="44.2,43.3 53.5,43.3 59.1,53.2 73.9,27.8 83.6,27.8 59.2,69.6 	"/>
	<polygon class="st1" points="43,57.3 33.6,57.2 50.1,85.6 54.5,77.6 	"/>
	<polygon class="st1" points="16.4,27.8 28.7,48.8 38.2,48.9 30.8,35.8 60.5,35.8 64.8,27.8 	"/>
</g>
</svg>
